# xmcd CD database file generated by OrangeCD 6.0
#
# Track frame offsets:
#	150
#	13534
#	34090
#	58571
#	87673
#	114454
#	145354
#	172984
#	198378
#	216688
#	244576
#	278408
#
# Disc length: 4542 seconds
#
# Revision: 6
# Processed by: cddbd v1.5.2PL0 Copyright (c) Steve Scherf et al.
# Submitted via: OrangeCD 6.0
#
DISCID=aa11bc0c
DTITLE=Ian Pooley - Since Then
DYEAR=2000
DGENRE=House
TTITLE0=Coração Tambor (intro)
TTITLE1=Venasque
TTITLE2=Since Then
TTITLE3=Bay of Plenty
TTITLE4=Coração Tambor (feat. Rosanna and Zélia)
TTITLE5=Balmes
TTITLE6=Visions (feat. Kirsty Hawkshaw)
TTITLE7=Spicy Snapper
TTITLE8=Menino Brincadeira (feat. Rosanna and Zélia)
TTITLE9=900 Degrees
TTITLE10=Sundowner
TTITLE11=Cloud Patterns
EXTD=
EXTT0=
EXTT1=
EXTT2=
EXTT3=
EXTT4=
EXTT5=
EXTT6=
EXTT7=
EXTT8=
EXTT9=
EXTT10=
EXTT11=
PLAYORDER=
